<?xml version="1.0" standalone="no"?>
<!DOCTYPE svg PUBLIC "-//W3C//DTD SVG 20010904//EN"
 "http://www.w3.org/TR/2001/REC-SVG-20010904/DTD/svg10.dtd">
<svg version="1.0" xmlns="http://www.w3.org/2000/svg"
 width="342.000000pt" height="342.000000pt" viewBox="0 0 342.000000 342.000000"
 preserveAspectRatio="xMidYMid meet">

<g transform="translate(0.000000,342.000000) scale(0.100000,-0.100000)"
fill="#000000" stroke="none">
<path d="M190 1715 l0 -1265 393 2 392 3 3 878 2 877 128 0 127 0 608 -596
607 -595 0 -285 0 -284 395 0 395 0 -1 443 -1 442 -390 380 -391 380 391 3
392 2 0 440 0 440 -392 -2 -393 -3 -5 -435 -5 -434 -445 436 -445 437 -682 0
-683 1 0 -1265z"/>
</g>
</svg>
